<?xml version="1.0" encoding="UTF-8"?>
<svg width="425" height="600" version="1.1" xmlns="http://www.w3.org/2000/svg">
 <path d="m300.27 561.8v-40.421c0-7.5976-2.6573-13.923-7.9344-18.938-5.2772-5.0152-11.415-7.5228-18.339-7.5228-7.1859 0-13.137 2.545-17.852 7.6725-4.7906 5.0152-7.1859 11.303-7.1859 18.788v40.421c0 7.1484 2.4702 13.474 7.4479 18.938 4.9777 5.4643 10.816 8.1965 17.59 8.1965 7.4479 0 13.661-2.5825 18.601-7.7848 5.09-5.2023 7.6724-11.677 7.6724-19.35zm-2.5076-40.383v40.346c0 6.7743-2.3579 12.5-7.0736 17.141-4.7906 4.7532-10.367 7.1485-16.692 7.2234-5.9134 0-11.153-2.5076-15.794-7.5228-4.5286-5.1649-6.8116-10.816-6.8116-16.879v-40.346c0-6.1754 2.3204-11.677 6.9239-16.468 4.6409-4.828 9.8432-7.2233 15.644-7.2233 6.3251 0 11.864 2.3204 16.543 6.9614 4.8655 4.7532 7.2608 10.33 7.2608 16.767zm-2.5076 40.383v-40.421c0-5.9134-2.1333-11.003-6.4374-15.307-4.1918-4.3041-9.1321-6.2128-14.784-5.7637-5.5017-0.37427-10.18 1.6093-14.147 5.9134-3.8549 4.4912-5.8011 9.5438-5.8011 15.158v40.421c0 5.6514 1.9836 10.704 5.9134 15.158 4.1169 4.8281 8.7952 7.0737 13.998 6.6994 5.8386 0.4491 10.779-1.5719 14.896-6.0257 4.2666-4.3789 6.3625-9.656 6.3625-15.831zm-2.6947-40.421v40.421c0 5.2771-1.8339 9.8057-5.5017 13.548-3.7427 3.6678-8.0841 5.5017-13.024 5.5017-4.6783 0-8.7204-1.9088-12.126-5.7637s-5.1274-8.2713-5.1274-13.286v-40.383c0-2.6948 0.41169-5.1275 1.2725-7.3731s2.0585-4.1544 3.593-5.7637 3.331-2.8818 5.4269-3.8175c2.0959-0.93567 4.4163-1.4222 6.9613-1.4222 5.2023 0 9.5438 1.759 13.024 5.2397 3.6678 3.5555 5.5017 7.897 5.5017 13.099zm-2.5076 40.383v-40.346c0-2.4328-0.41169-4.6035-1.1976-6.5871-0.82339-1.9462-1.9088-3.6304-3.331-5.0152s-3.1064-2.4327-5.0526-3.1438c-1.9836-0.71111-4.1169-1.0105-6.4-0.93567-4.1918-0.26198-7.7099 1.1976-10.517 4.4163-2.807 3.1438-4.2292 6.8864-4.2292 11.265v40.346c0 4.379 1.4596 8.2339 4.3415 11.527 2.8818 3.2936 6.3625 4.9403 10.367 4.9403 4.2666 0 8.0467-1.5719 11.265-4.6783 3.1813-3.2187 4.7532-7.1485 4.7532-11.789zm-2.5076-40.421v40.346c0 8.683-4.4912 13.324-13.511 13.96-3.593-0.262-6.5496-1.7216-8.8327-4.3415-2.283-2.6198-3.4058-5.8385-3.4058-9.5812v-40.346c0-4.0046 1.0854-7.1859 3.2187-9.5063s5.1649-3.4807 9.0198-3.4807c4.1169 0 7.4105 1.1602 9.8432 3.4058s3.6678 5.4269 3.6678 9.5438zm-47.345 39.635h-2.6573c0.18713 4.0421-0.89824 7.2982-3.2561 9.8432-2.3579 2.545-5.4269 3.8175-9.2818 3.8175-3.8175 0-6.9614-1.1602-9.3941-3.4807-2.4327-2.3204-3.6304-5.5017-3.6304-9.5063v-41.057c0-4.0047 1.1976-7.2234 3.6304-9.5812 2.4327-2.3579 5.5766-3.5181 9.3941-3.4058 3.8175 0.0749 6.9239 1.3848 9.2818 3.8924s3.4432 5.7637 3.2561 9.8058h2.6573c0.33684-4.3041-1.0105-8.159-4.1169-11.527-3.069-3.2935-6.7742-4.9777-11.078-4.9777-2.3204 0-4.4163 0.41169-6.3251 1.1976-1.9088 0.82338-3.5555 1.9462-4.9403 3.4058-1.4222 1.4596-2.5076 3.2187-3.2935 5.2397-0.78596 2.021-1.1602 4.2292-1.1602 6.6246v40.383c0 4.4912 1.5345 8.2338 4.6409 11.265 2.9941 3.0315 6.6994 4.566 11.078 4.566 4.3041 0 8.0093-1.6468 11.078-4.9777 3.1064-3.4058 4.4912-7.2234 4.1169-11.527zm5.2023 0.037h-2.6573c0.26198 5.2772-1.4222 9.7309-5.0152 13.286-3.593 3.78-7.8222 5.6888-12.725 5.7636-4.9029 0.075-9.1695-1.6467-12.837-5.2397-3.593-3.5929-5.3894-7.9718-5.3894-13.174v-41.132c0-5.2023 1.7965-9.5438 5.3894-13.024 3.5181-3.593 7.7847-5.4268 12.837-5.4268 4.8655 0 9.1321 1.9088 12.725 5.7637 3.593 3.7801 5.2772 8.1964 5.0152 13.324h2.6573c0.33684-5.7263-1.5719-10.854-5.7637-15.345-4.1169-4.4912-8.945-6.7368-14.522-6.7368-5.9883 0-10.966 2.1333-14.896 6.4374-3.9298 4.1169-5.9134 9.3192-5.9134 15.607v40.458c0 5.8386 2.0585 10.891 6.1754 15.195 4.1918 4.3041 9.0947 6.3625 14.634 6.1754 5.5766-0.075 10.442-2.3205 14.634-6.6994 4.1169-4.3789 5.9883-9.4689 5.6514-15.233zm5.0152-0.1123h-2.5076c0.26198 6.3626-1.9836 12.014-6.6619 16.917-4.6035 4.828-9.9929 7.3356-16.168 7.5227-5.9882 0.075-11.415-2.2456-16.281-6.9613-4.7158-4.8281-7.0362-10.405-7.0362-16.767v-41.02c0-6.4374 2.3579-11.977 7.0362-16.617 4.6035-4.566 10.03-6.9239 16.281-7.111 5.876-0.0749 11.228 2.4327 16.019 7.5227 4.7906 5.0152 7.0362 10.629 6.7742 16.879h2.5076c0.18714-7.2234-2.3579-13.623-7.5602-19.162-5.1274-5.7263-11.078-8.5333-17.852-8.4584-6.9239 0.18713-12.987 2.9193-18.227 8.1964-5.1274 5.2772-7.7099 11.527-7.7099 18.788v41.02c0 7.1484 2.6199 13.474 7.8222 18.9 5.3146 5.352 11.34 8.0093 18.077 7.897 6.9988-0.1871 12.987-3.0315 17.965-8.4958 5.2023-5.4269 7.6725-11.789 7.5228-19.05zm-56.851-67.143v94.24h2.6573v-94.24zm-5.0152 0v94.24h2.5076v-94.24zm-5.2023 94.24h2.6947v-94.24h-2.6947zm-21.296-47.083 16.168-47.008h-2.545l-14.784 43.265-1.0105 3.7426 15.794 46.858h2.545zm-5.0152-14.784 11.041-32.224h-2.4327l-9.8806 28.594-9.7683-28.594h-2.4327l11.041 32.224c0.26198 0.8983 0.63625 1.3474 1.1602 1.3474 0.59883 0 1.0105-0.4491 1.2725-1.3474zm0 14.784 16.168-47.008-3.069-0.11228-14.484 42.966-14.671-42.853h-2.545l15.906 46.484-15.906 47.382h2.545l14.784-43.228 14.896 43.228h2.545zm-21.034-47.008h-2.5824l16.056 47.008-16.056 46.858h2.5824l16.019-46.858zm-18.339 81.029c-4.3415 0.1871-7.6724-0.9357-9.9929-3.3684s-3.4432-5.8011-3.4432-10.218v-13.436h21.82v-2.807h-24.514v16.168c0 2.4327 0.41169 4.6409 1.2351 6.6619 0.82338 2.0211 1.9462 3.7801 3.4058 5.2398 1.4596 1.497 3.1813 2.6198 5.2023 3.3683 2.021 0.786 4.1544 1.048 6.4748 0.8609 2.0585-0.075 3.9672-0.5614 5.7637-1.4597 1.7965-0.8982 3.3684-2.0584 4.6783-3.4807 1.3099-1.4222 2.3579-3.1064 3.1438-5.0525 0.78596-1.9088 1.1602-4.0421 1.1602-6.3626h-2.545c-0.26199 4.3041-1.5345 7.6351-3.8549 9.9929-2.283 2.4328-5.1274 3.7053-8.5333 3.8924zm12.089-53.67h2.545c0.4117-4.4912-0.97309-8.3087-4.2292-11.565-3.069-3.1813-6.6994-4.7532-10.891-4.7532-2.3204 0-4.4163 0.4117-6.3625 1.1976-1.9088 0.78596-3.5555 1.9462-4.9403 3.4058s-2.4327 3.1813-3.2187 5.1649c-0.78596 1.9836-1.1602 4.1544-1.1602 6.5871v15.831h24.514v-2.6198h-21.82v-13.174c0-4.0421 1.2351-7.373 3.7052-10.03 2.4702-2.6573 5.5766-3.8924 9.3192-3.7052 3.8175 0.26199 6.9239 1.6094 9.2444 4.0046 2.3579 2.3953 3.4432 5.614 3.2936 9.6561zm-11.902 58.835c-5.6514 0.262-10.18-1.3848-13.586-4.9778-3.4807-3.6678-5.2397-8.2712-5.2397-13.81v-18.788h26.947v-2.807h-26.947v-18.526c0-5.2023 1.7965-9.6561 5.352-13.436 3.5555-3.7801 7.8222-5.6514 12.762-5.6514 4.8655 0 9.0572 1.9088 12.65 5.7637 3.593 3.7801 5.2397 8.1965 4.9777 13.324h2.6947c0.33684-5.9134-1.5345-11.041-5.6514-15.345-4.1918-4.3789-9.0947-6.6245-14.671-6.7368-5.8386-0.18713-10.741 1.9836-14.784 6.4374-4.0421 4.3789-6.0257 9.5812-6.0257 15.607v40.046c0 6.1754 2.021 11.378 6.0631 15.607 4.0421 4.1918 9.0572 6.2877 15.083 6.1754 5.5766-0.075 10.442-2.283 14.559-6.5871 3.9672-4.304 5.876-9.4315 5.8011-15.457h-2.6573c-0.18713 5.5391-1.8713 10.03-5.1274 13.436-3.3684 3.5555-7.4105 5.4643-12.201 5.7263zm-0.37427 5.4268c-6.5871 0.1872-12.201-2.0959-16.805-6.849-4.5286-4.7532-6.8116-10.517-6.8116-17.329v-40.009c0-6.4374 2.3579-12.126 7.0362-17.067 4.6783-4.9029 10.143-7.373 16.281-7.373 5.9134 0 11.228 2.4702 16.019 7.4479 4.7906 4.9777 7.0362 10.592 6.8116 16.842h2.6573c0.52397-7.5227-1.8339-13.848-7.0736-19.05-5.2023-5.352-11.34-8.0842-18.339-8.1964-7.1859-0.18713-13.286 2.3579-18.339 7.635-5.0526 5.09-7.5602 11.64-7.5602 19.612v40.046c0 7.4479 2.5824 13.736 7.7099 18.938 5.2397 5.2772 11.34 7.9345 18.376 7.9345s13.062-2.6573 18.114-7.9719c5.0526-5.2771 7.5227-11.64 7.4479-19.05h-2.6573c0.26199 6.3625-1.9836 11.976-6.6619 16.917-4.6783 4.828-10.068 7.3356-16.206 7.5227zm-33.572 2.6199v-70.063c0-3.4058-1.1976-6.4-3.593-8.9824-2.3953-2.7696-5.2397-4.1544-8.4958-4.1544-3.5181 0-6.4748 1.759-8.8701 5.2397-2.3953 3.2935-3.593 6.849-3.593 10.592v67.368h2.6573v-67.405c0-3.0316 0.89824-5.9883 2.6947-8.8701 1.7965-2.8444 4.1544-4.304 7.0362-4.304 2.807 0 5.09 1.0479 6.8491 3.1064 1.759 2.0585 2.6199 4.5286 2.6199 7.3731v70.063zm-56.664-70.063v70.063h2.5076v-70.063c0-2.8818 0.86081-5.3146 2.6199-7.373s4.0421-3.1064 6.8491-3.1064 5.2023 1.4971 7.1859 4.4163c1.7216 2.7696 2.5824 5.6888 2.5824 8.7204v67.405h2.6573v-67.368c0-3.7427-1.1976-7.2982-3.593-10.592-2.4702-3.4807-5.3894-5.2397-8.7204-5.2397-3.2561 0-6.0631 1.3848-8.4958 4.1544-2.3953 2.5824-3.593 5.5766-3.593 8.9824zm26.91 2.6947v67.33h2.6573v-67.33c0-3.9298 1.1977-7.8221 3.593-11.677 2.8818-4.6409 6.6994-6.9614 11.415-6.9614 3.8549 0 7.2608 1.4971 10.255 4.4163 2.9193 2.9567 4.3415 6.8116 4.3415 11.527v70.025h2.6573v-70.138c0-5.9134-1.6468-10.517-4.9403-13.848s-7.4105-4.9777-12.313-4.9777c-3.8549 0-7.2982 1.2351-10.292 3.7801-2.9941 2.5076-5.0152 5.6514-6.0631 9.3941-1.048-3.7427-2.9941-6.8865-5.9134-9.3941s-6.3251-3.7801-10.292-3.7801c-4.9777 0-8.9824 1.6093-12.089 4.828-3.331 3.4058-5.0152 8.0467-5.0152 13.96v70.137h2.5076v-70.025c0-4.7532 1.4596-8.5707 4.3415-11.527s6.3251-4.4163 10.217-4.4163c4.6035 0 8.3461 2.3204 11.265 6.9614 2.4702 3.8924 3.6678 7.7847 3.6678 11.715zm-1.0854-17.516c0.86082 1.3474 1.6842 2.021 2.4327 2.021 0.4117 0 1.2725-0.7111 2.5824-2.1333 1.5345-1.6094 3.1064-2.9193 4.7532-3.8924 2.3953-1.4222 5.3894-2.1707 8.9824-2.1707 5.8386 0 10.442 1.6468 13.885 4.9777 3.9298 3.7427 5.9134 9.1321 5.9134 16.093v70.025h2.5076v-70.137c0-7.4479-2.1333-13.399-6.4374-17.89-3.9298-4.1169-9.2444-6.1754-15.944-6.1754-6.5122 0-11.939 2.545-16.318 7.635-4.3789-5.09-9.7683-7.635-16.168-7.635-6.5871 0-11.864 2.0585-15.794 6.1754-4.304 4.4912-6.4374 10.442-6.4374 17.89v70.137h2.6573v-70.025c0-6.9613 1.8713-12.351 5.6514-16.093 3.4058-3.2936 8.0842-4.9777 13.998-4.9777 6.2502-0.0374 10.854 2.0584 13.736 6.1754zm112.58 84.509h2.4327l-11.041-32.224c-0.26199-0.7859-0.63626-1.1976-1.1602-1.1976-0.59882 0-1.0105 0.4117-1.2725 1.1976l-11.041 32.224h2.4327l9.7683-28.594zm242.67-25.413v-40.87c0-7.6724-2.6947-14.072-8.0467-19.125-5.3894-5.0526-11.565-7.5976-18.601-7.5976-7.2982 0-13.324 2.5824-18.077 7.7473-4.8655 5.0526-7.2982 11.415-7.2982 19.013v40.87c0 7.2233 2.5076 13.623 7.5602 19.125 5.0152 5.5391 10.966 8.2713 17.815 8.2713 7.5602 0 13.81-2.6199 18.863-7.8596 5.2023-5.2772 7.7847-11.789 7.7847-19.574zm-2.545-40.832v40.758c0 6.8491-2.3953 12.65-7.1485 17.328-4.8655 4.7906-10.479 7.2234-16.879 7.2982-5.9883 0-11.303-2.545-15.981-7.5976-4.6035-5.2397-6.8865-10.929-6.8865-17.066v-40.758c0-6.2128 2.3204-11.789 7.0362-16.655 4.6783-4.8654 9.9555-7.2982 15.869-7.2982 6.4 0 12.014 2.3579 16.767 7.0362 4.828 4.828 7.2233 10.479 7.2233 16.954zm-2.5076 40.832v-40.832c0-5.9508-2.1707-11.116-6.5122-15.457-4.2666-4.3415-9.2444-6.2877-14.971-5.8386-5.5766-0.37427-10.33 1.6468-14.334 5.9882-3.8924 4.5286-5.876 9.6186-5.876 15.345v40.832c0 5.6888 1.9836 10.816 5.9883 15.345 4.1544 4.9029 8.9075 7.1485 14.185 6.7742 5.9134 0.4491 10.929-1.5719 15.12-6.1005 4.2666-4.4912 6.4-9.8058 6.4-16.056zm-2.7321-40.832v40.87c0 5.352-1.8713 9.918-5.5766 13.698-3.8175 3.7053-8.1964 5.5766-13.212 5.5766-4.7532 0-8.8327-1.9462-12.313-5.8386-3.4432-3.8923-5.1649-8.3461-5.1649-13.436v-40.795c0-2.7321 0.44912-5.2023 1.3099-7.4479 0.86081-2.2456 2.0585-4.1918 3.6304-5.8386 1.5719-1.6094 3.3684-2.9193 5.5017-3.8549 2.1333-0.93567 4.4538-1.4222 7.0736-1.4222 5.2772 0 9.6561 1.759 13.212 5.2772 3.7052 3.5555 5.5391 7.9344 5.5391 13.212zm-2.545 40.795v-40.795c0-2.4327-0.41169-4.6409-1.2351-6.6245-0.82338-1.9836-1.9462-3.6678-3.3684-5.09s-3.1438-2.4702-5.1274-3.1813-4.1544-1.0479-6.5122-0.93566c-4.2292-0.26199-7.7847 1.1976-10.667 4.4538-2.8444 3.1813-4.2666 6.9613-4.2666 11.378v40.795c0 4.4164 1.4596 8.3087 4.4163 11.64s6.4748 5.0152 10.517 5.0152c4.3415 0 8.1216-1.5719 11.415-4.7532 3.2187-3.2187 4.828-7.1859 4.828-11.902zm-2.545-40.832v40.758c0 8.7578-4.566 13.474-13.698 14.072-3.6678-0.262-6.6245-1.7216-8.945-4.4164-2.3204-2.6572-3.4432-5.8759-3.4432-9.6934v-40.758c0-4.0795 1.0854-7.2608 3.2561-9.6186 2.1707-2.3579 5.2397-3.5181 9.1321-3.5181 4.1544 0 7.4853 1.1602 9.9929 3.4432 2.4702 2.3579 3.7052 5.5766 3.7052 9.7309zm-43.827-16.505h-32.935v2.6573h29.417l-27.995 81.103h2.6199zm3.3684-2.6573-29.792 86.568h2.6199l30.69-89.375h-39.822v2.807zm-36.304-8.2713v2.807h43.34l-31.625 91.957h2.4702l32.673-94.764zm89.3 68.491v-40.87c0-7.6724-2.6947-14.072-8.0467-19.125-5.3894-5.0526-11.565-7.5976-18.601-7.5976-7.2982 0-13.324 2.5824-18.077 7.7473-4.8655 5.0526-7.2982 11.415-7.2982 19.013v40.87c0 7.2608 2.5076 13.623 7.5602 19.125 5.0152 5.5392 10.966 8.2713 17.815 8.2713 7.5602 0 13.81-2.6199 18.863-7.8596 5.1649-5.2771 7.7847-11.789 7.7847-19.574zm-2.545-40.795v40.758c0 6.849-2.3953 12.65-7.1485 17.328-4.8654 4.7906-10.479 7.2233-16.917 7.2982-5.9883 0-11.303-2.545-15.981-7.5602-4.6035-5.2397-6.8865-10.929-6.8865-17.066v-40.758c0-6.2128 2.3204-11.789 7.0362-16.655 4.6783-4.8655 9.9555-7.2982 15.869-7.2982 6.4 0 12.014 2.3579 16.767 7.0362 4.828 4.7532 7.2608 10.405 7.2608 16.917zm-2.545 40.795v-40.832c0-5.9509-2.1707-11.116-6.5122-15.457-4.2666-4.3415-9.2444-6.2876-14.971-5.8386-5.5766-0.37426-10.33 1.6468-14.334 5.9883-3.8924 4.5286-5.876 9.6186-5.876 15.345v40.832c0 5.6889 1.9836 10.816 5.9883 15.345 4.1544 4.8655 8.9075 7.1485 14.185 6.7742 5.9134 0.4492 10.929-1.5719 15.12-6.1005 4.2666-4.4538 6.3999-9.8058 6.3999-16.056zm-2.6947-40.832v40.87c0 5.352-1.8339 9.9181-5.5766 13.698-3.8175 3.7052-8.1964 5.5765-13.212 5.5765-4.7532 0-8.8701-1.9462-12.313-5.8385-3.4432-3.8924-5.1649-8.3462-5.1649-13.436v-40.795c0-2.7321 0.41169-5.2023 1.3099-7.4479 0.86081-2.2456 2.0585-4.1918 3.6304-5.8386 1.5719-1.6093 3.4058-2.9193 5.5017-3.8549 2.0959-0.93566 4.4538-1.4222 7.0736-1.4222 5.2772 0 9.6561 1.759 13.212 5.2772 3.6678 3.593 5.5391 7.9719 5.5391 13.212zm-2.545 40.832v-40.795c0-2.4327-0.41169-4.6409-1.2351-6.6245-0.82338-1.9836-1.9462-3.6678-3.3684-5.09-1.4222-1.3848-3.1438-2.4702-5.1274-3.1813s-4.1544-1.0479-6.5122-0.93566c-4.2292-0.26198-7.7847 1.1977-10.667 4.4538-2.8444 3.1813-4.3041 6.9614-4.3041 11.378v40.795c0 4.4163 1.4596 8.3087 4.4163 11.64 2.9567 3.3309 6.4748 5.0151 10.517 5.0151 4.3415 0 8.159-1.5719 11.415-4.7531 3.2561-3.2562 4.8655-7.2234 4.8655-11.902zm-2.545-40.87v40.758c0 8.7578-4.566 13.474-13.698 14.072-3.6678-0.262-6.6245-1.7216-8.945-4.4163-2.3204-2.6573-3.4807-5.876-3.4807-9.6935v-40.72c0-4.0795 1.0854-7.2607 3.2561-9.6186s5.2023-3.5181 9.1321-3.5181c4.1544 0 7.4853 1.1602 9.9929 3.4432 2.5076 2.3204 3.7427 5.5392 3.7427 9.6934zm-43.827-16.468h-32.935v2.6199h29.417l-27.995 81.141h2.6199zm3.3684-2.6573-29.792 86.53h2.5824l30.727-89.375h-39.822v2.8444zm-36.304-8.3087v2.807h43.34l-31.625 91.995h2.4702l32.673-94.802zm-18.451 67.742v-40.421c0-7.5976-2.6573-13.923-7.9719-18.938-5.3146-5.0152-11.415-7.5227-18.339-7.5227-7.1859 0-13.137 2.545-17.852 7.6724-4.7906 5.0152-7.1859 11.265-7.1859 18.788v40.421c0 7.1485 2.4702 13.474 7.4479 18.938 4.9403 5.4642 10.816 8.1964 17.591 8.1964 7.4479 0 13.661-2.5825 18.601-7.7847 5.1649-5.2023 7.7099-11.64 7.7099-19.35zm-2.5076-40.383v40.346c0 6.7742-2.3579 12.5-7.0362 17.141-4.7906 4.7157-10.367 7.1484-16.692 7.2233-5.9134 0-11.153-2.5076-15.794-7.5228-4.5286-5.1648-6.8116-10.816-6.8116-16.879v-40.346c0-6.1754 2.3204-11.677 6.9239-16.468 4.6035-4.828 9.8432-7.2233 15.644-7.2233 6.3251 0 11.827 2.3205 16.543 6.9613 4.828 4.7532 7.2233 10.33 7.2233 16.767zm-2.5076 40.383v-40.421c0-5.9134-2.1333-11.003-6.4374-15.308-4.1918-4.304-9.1321-6.2128-14.784-5.7637-5.5017-0.37427-10.18 1.6093-14.147 5.9134-3.8549 4.4912-5.7637 9.5438-5.7637 15.158v40.421c0 5.6514 1.9836 10.704 5.9134 15.158 4.1169 4.828 8.7952 7.0736 13.998 6.6993 5.8386 0.4492 10.779-1.5719 14.896-6.0256 4.2292-4.379 6.3251-9.6561 6.3251-15.832zm-2.6573-40.421v40.421c0 5.2772-1.8339 9.8058-5.5017 13.548-3.7427 3.6678-8.0841 5.5017-13.024 5.5017-4.6783 0-8.7204-1.9087-12.126-5.7637-3.4058-3.8549-5.09-8.2712-5.09-13.286v-40.308c0-2.6947 0.41169-5.1274 1.2725-7.373 0.86082-2.2456 2.0585-4.1544 3.5555-5.7637 1.5345-1.6094 3.331-2.8818 5.4269-3.8175 2.0959-0.93566 4.4163-1.4222 6.9614-1.4222 5.2023 0 9.5438 1.759 13.024 5.2397 3.6678 3.4807 5.5017 7.8222 5.5017 13.024zm-2.5076 40.383v-40.346c0-2.4327-0.41169-4.6035-1.1976-6.5871-0.82339-1.9462-1.9088-3.6304-3.331-5.0152s-3.1064-2.4327-5.0526-3.1438-4.1169-1.0105-6.4-0.93567c-4.1918-0.26198-7.7099 1.1977-10.517 4.4163-2.807 3.1438-4.2292 6.8865-4.2292 11.265v40.346c0 4.3789 1.4596 8.2338 4.3415 11.527 2.9193 3.2935 6.3625 4.9403 10.367 4.9403 4.2666 0 8.0467-1.5719 11.265-4.6783 3.1813-3.1813 4.7532-7.1111 4.7532-11.789zm-2.5076-40.421v40.346c0 8.683-4.4912 13.324-13.511 13.96-3.593-0.2619-6.5497-1.7216-8.7953-4.3414-2.283-2.6199-3.4058-5.8386-3.4058-9.5813v-40.346c0-4.0047 1.0854-7.1859 3.2187-9.5064 2.1333-2.3204 5.1649-3.4807 9.0198-3.4807 4.1169 0 7.4105 1.1602 9.8432 3.4058s3.6304 5.4642 3.6304 9.5438zm-47.345 39.635h-2.6573c0.18713 4.0421-0.89824 7.3356-3.2561 9.8432-2.3579 2.545-5.4269 3.8175-9.2818 3.8175s-6.9614-1.1602-9.3941-3.4806c-2.4327-2.3205-3.6304-5.5018-3.6304-9.5064v-41.057c0-4.0046 1.1977-7.2233 3.6304-9.5812s5.5766-3.5181 9.3941-3.4058c3.8175 0.0749 6.9239 1.3848 9.2818 3.8924s3.4432 5.7637 3.2561 9.8058h2.6573c0.33684-4.304-1.048-8.159-4.1169-11.527-3.1064-3.2935-6.7742-4.9777-11.078-4.9777-2.3204 0-4.4163 0.41169-6.3251 1.1976-1.9088 0.82339-3.5555 1.9462-4.9403 3.4058-1.4222 1.4596-2.5076 3.2187-3.2935 5.2397-0.78596 2.021-1.1602 4.2292-1.1602 6.6245v40.383c0 4.4912 1.5345 8.2338 4.6409 11.265 2.9941 3.0316 6.6994 4.566 11.078 4.566 4.3041 0 7.9719-1.6467 11.078-4.9777 3.069-3.3684 4.4538-7.2233 4.1169-11.527zm5.1649 0.075h-2.6573c0.26199 5.2771-1.4222 9.7309-5.0152 13.286-3.593 3.7801-7.8222 5.6889-12.725 5.7637-4.8654 0.075-9.1695-1.6468-12.837-5.2397-3.593-3.593-5.3894-7.9719-5.3894-13.174v-41.132c0-5.2023 1.7965-9.5438 5.3894-13.024 3.5181-3.6304 7.7847-5.4269 12.837-5.4269 4.8655 0 9.0947 1.9088 12.725 5.7637 3.593 3.7801 5.2772 8.1964 5.0152 13.324h2.6573c0.33684-5.7262-1.5719-10.854-5.7637-15.345-4.1169-4.4912-8.945-6.7368-14.522-6.7368-5.9882 0-10.966 2.1333-14.896 6.4374-3.9298 4.1169-5.9134 9.3192-5.9134 15.607v40.458c0 5.8385 2.0585 10.891 6.1754 15.195 4.1918 4.304 9.0947 6.3625 14.634 6.1754 5.5766-0.075 10.442-2.3205 14.634-6.6994 4.1169-4.4163 5.9883-9.5064 5.6514-15.233zm5.0152-0.1497h-2.5076c0.26199 6.3625-1.9462 11.976-6.6619 16.917-4.6035 4.828-9.9929 7.3356-16.131 7.5227-5.9882 0.075-11.415-2.2456-16.281-6.9613-4.7158-4.828-7.0362-10.405-7.0362-16.767v-41.02c0-6.4374 2.3579-11.977 7.0362-16.617 4.6035-4.566 10.03-6.9239 16.281-7.111 5.876-0.0748 11.228 2.4327 16.019 7.5228 4.7906 5.0152 7.0362 10.629 6.7742 16.879h2.5076c0.18714-7.2234-2.3579-13.623-7.5602-19.162-5.1274-5.7263-11.078-8.5333-17.815-8.4584-6.9239 0.18714-13.024 2.9193-18.227 8.1964-5.1274 5.2772-7.7099 11.527-7.7099 18.788v41.02c0 7.1485 2.6199 13.474 7.8222 18.9 5.3146 5.352 11.34 8.0093 18.114 7.897 6.9988-0.1871 12.987-3.0315 17.965-8.4958 5.1274-5.4269 7.5976-11.789 7.4105-19.05zm-56.851-67.106v94.203h2.6947v-94.203zm-5.0152 0v94.203h2.5076v-94.203zm-5.1649 94.203h2.6573v-94.203h-2.6573zm-21.296-47.083 16.168-46.97h-2.5824l-14.746 43.228-1.048 3.7427 15.794 46.896h2.5824zm-5.0152 0 16.168-46.97-3.069-0.14971-14.522 42.966-14.634-42.816h-2.5824l15.944 46.446-15.944 47.42h2.5824l14.784-43.228 14.896 43.228h2.545zm-21.071-46.97h-2.545l16.019 46.97-16.019 46.896h2.545l16.056-46.896zm-18.339 80.991c-4.3415 0.1872-7.6724-0.9356-9.9929-3.3684-2.3204-2.3953-3.4432-5.8011-3.4432-10.217v-13.436h21.82v-2.807h-24.514v16.168c0 2.4328 0.4117 4.6409 1.2351 6.662 0.82339 2.021 1.9462 3.78 3.4058 5.2397 1.4596 1.4971 3.1813 2.6198 5.2023 3.3684 2.021 0.7859 4.1544 1.0479 6.4748 0.8982 2.0585-0.075 3.9672-0.5614 5.7637-1.497 1.7965-0.8983 3.3684-2.0585 4.6783-3.4807 1.3474-1.4222 2.3953-3.1064 3.1438-5.0526 0.78595-1.9088 1.1602-4.0421 1.1602-6.3625h-2.545c-0.26198 4.304-1.5345 7.635-3.8549 9.9929-2.2456 2.4327-5.1274 3.7052-8.5333 3.8923zm0.22456 5.1649c-5.614 0.262-10.143-1.3848-13.586-4.9777-3.5181-3.6678-5.2397-8.2713-5.2397-13.81v-18.788h26.985v-2.807h-26.985v-18.526c0-5.2023 1.7965-9.656 5.352-13.436 3.593-3.7427 7.8222-5.6514 12.8-5.6514 4.8655 0 9.0572 1.9088 12.65 5.7637 3.593 3.7801 5.2397 8.1964 4.9777 13.324h2.6573c0.33683-5.9134-1.5345-11.041-5.6514-15.345-4.1918-4.3789-9.0947-6.6245-14.671-6.7368-5.8386-0.18714-10.741 1.9836-14.784 6.4374-4.0421 4.3789-6.0257 9.5812-6.0257 15.607v40.046c0 6.1754 2.021 11.378 6.0631 15.607 4.0421 4.1917 9.0572 6.2876 15.083 6.1754 5.5766-0.075 10.442-2.2831 14.559-6.5871 3.9672-4.3041 5.876-9.4315 5.8011-15.42h-2.6947c-0.18714 5.5392-1.8713 10.03-5.1274 13.436-3.331 3.5555-7.4105 5.4268-12.164 5.6888zm-0.4117 5.4269c-6.5871 0.1871-12.201-2.0959-16.805-6.8491-4.5286-4.7532-6.8116-10.517-6.8116-17.328v-40.009c0-6.4373 2.3579-12.126 7.0362-17.066 4.6783-4.9403 10.105-7.373 16.281-7.373 5.876 0 11.228 2.4702 16.019 7.4479 4.7906 4.9777 7.0362 10.592 6.7742 16.842h2.6947c0.52397-7.5227-1.8339-13.885-7.0736-19.05-5.2397-5.352-11.34-8.0841-18.339-8.1964-7.1859-0.18714-13.324 2.3579-18.339 7.635-5.0526 5.1274-7.5602 11.64-7.5602 19.612v40.046c0 7.4479 2.5824 13.736 7.7099 18.938 5.2397 5.2771 11.34 7.9344 18.376 7.9344s13.062-2.6573 18.114-7.9719c5.0526-5.2771 7.5228-11.64 7.4479-19.05h-2.6573c0.26198 6.3625-1.9836 11.976-6.6619 16.917-4.6409 4.828-10.03 7.3356-16.206 7.5228zm-33.534 2.6198v-70.063c0-3.4058-1.1976-6.3999-3.593-8.9824-2.3953-2.7696-5.2397-4.1544-8.4958-4.1544-3.5181 0-6.4748 1.759-8.8701 5.2397-2.3953 3.2935-3.593 6.8491-3.593 10.592v67.368h2.6947v-67.405c0-3.0315 0.89824-5.9882 2.6947-8.8701 1.7965-2.8444 4.1544-4.3041 7.0362-4.3041 2.807 0 5.09 1.0105 6.8491 3.069s2.6199 4.5286 2.6199 7.3731v70.063zm-56.701-70.063v70.063h2.5076v-70.063c0-2.8444 0.86081-5.3146 2.6199-7.373 1.759-2.0585 4.0421-3.069 6.8491-3.069s5.2023 1.4971 7.1859 4.4163c1.7216 2.7696 2.5824 5.6889 2.5824 8.7204v67.405h2.6573v-67.368c0-3.7801-1.1976-7.2982-3.593-10.592-2.4702-3.4807-5.3894-5.2397-8.7204-5.2397-3.2561 0-6.0631 1.3848-8.4958 4.1544-2.3953 2.545-3.593 5.5766-3.593 8.9449zm26.91 2.7322v67.33h2.6573v-67.33c0-3.9298 1.1976-7.8222 3.593-11.677 2.9193-4.6409 6.6994-6.9614 11.415-6.9614 3.8549 0 7.2608 1.4971 10.255 4.4163 2.9193 2.9567 4.3415 6.8116 4.3415 11.527v70.025h2.6573v-70.137c0-5.9134-1.6468-10.517-4.9777-13.848-3.2935-3.331-7.4105-4.9777-12.313-4.9777-3.8549 0-7.2982 1.2725-10.292 3.7801-2.9941 2.5076-5.0152 5.6514-6.0631 9.3941-1.0105-3.7427-2.9941-6.8865-5.9134-9.3941s-6.3251-3.7801-10.292-3.7801c-4.9777 0-8.9824 1.6093-12.089 4.828-3.331 3.4058-5.0152 8.0467-5.0152 13.96v70.138h2.5076v-69.988c0-4.7532 1.4596-8.5707 4.3415-11.527 2.9193-2.9567 6.3251-4.4163 10.217-4.4163 4.6035 0 8.3461 2.3204 11.265 6.9614 2.545 3.8175 3.7052 7.7098 3.7052 11.677zm-1.048-17.553c0.86082 1.3474 1.6842 2.021 2.4327 2.021 0.4117 0 1.2725-0.71111 2.5824-2.1708 1.5345-1.6093 3.1064-2.9193 4.7532-3.8924 2.3953-1.4222 5.3894-2.1708 8.9824-2.1708 5.8386 0 10.442 1.6468 13.848 4.9403 3.9298 3.7426 5.9134 9.1321 5.9134 16.093v70.025h2.5076v-70.138c0-7.4478-2.1333-13.399-6.4374-17.89-3.9298-4.1169-9.2444-6.1754-15.906-6.1754-6.5122 0-11.939 2.545-16.318 7.635-4.3789-5.09-9.7683-7.635-16.206-7.635-6.5871 0-11.864 2.0585-15.794 6.1754-4.2666 4.4912-6.4374 10.442-6.4374 17.89v70.138h2.6573v-69.988c0-6.9614 1.8713-12.351 5.6514-16.093 3.4432-3.2935 8.0841-4.9403 13.998-4.9403 6.2877 0 10.854 2.0585 13.773 6.1754zm112.58 84.547h2.4327l-11.041-32.224c-0.26199-0.786-0.63626-1.1977-1.1602-1.1977-0.59882 0-1.0105 0.4117-1.2725 1.1977l-11.041 32.224h2.4327l9.7683-28.594z"/>
 <path d="m151.91 432.4c-45.548-15.158-84.21-47.008-109.66-88.813l69.688 19.686zm-142.22-204.01v-2.283c0-49.965 15.906-95.999 42.629-132.6l5.09 77.061zm138.1-207.16c20.323-7.2608 42.067-11.228 64.711-11.228 24.514 0 48.056 4.6409 69.801 13.137l-66.395 29.979zm267.45 210.82c0.0374-1.9836 0.0749-3.9672 0.0749-5.9508 0-49.029-15.345-94.278-41.169-130.54l-4.8655 72.271zm-150.72 203c48.018-13.548 89.038-45.361 116.13-88.065l-71.373 19.088zm-12.912-156.71-78.558 1.1228-20.435-74.741 60.219-46.147 61.23 47.27zm-106.14 72.533 35.742 60.444 59.171 1.0854 37.763-59.321-16.355-25.3-102.02 1.1228zm-30.578-21.969-60.219-18.676-17.329-60.444 40.795-53.857 24.477 7.7099 30.615 102.17zm254.05-15.382-62.24 16.468-16.318-23.055 32.636-100 24.514-8.7953 40.795 57.15zm-29.567-149.44-25.525 7.6724-82.638-63.7-1.048-25.3 58.161-26.348 54.081 40.645zm-141.85-79.12 1.0105 25.263-83.648 60.444-26.535-11.003-1.048-69.202 47.981-34.058z" fill="#519cd5"/>
</svg>
