<?xml version="1.0" encoding="UTF-8" standalone="no"?>
<svg
   xmlns:dc="http://purl.org/dc/elements/1.1/"
   xmlns:cc="http://creativecommons.org/ns#"
   xmlns:rdf="http://www.w3.org/1999/02/22-rdf-syntax-ns#"
   xmlns:svg="http://www.w3.org/2000/svg"
   xmlns="http://www.w3.org/2000/svg"
   xmlns:sodipodi="http://sodipodi.sourceforge.net/DTD/sodipodi-0.dtd"
   xmlns:inkscape="http://www.inkscape.org/namespaces/inkscape"
   width="520"
   height="543"
   viewBox="0 0 137.58333 143.66875"
   version="1.1"
   id="svg911"
   inkscape:version="1.0.1 (3bc2e813f5, 2020-09-07)"
   sodipodi:docname="1978 FIFA World Cup Argentina.svg">
  <defs
     id="defs905" />
  <sodipodi:namedview
     id="base"
     pagecolor="#818181"
     bordercolor="#666666"
     borderopacity="1.0"
     inkscape:pageopacity="0"
     inkscape:pageshadow="2"
     inkscape:zoom="0.49497475"
     inkscape:cx="251.8252"
     inkscape:cy="540.35026"
     inkscape:document-units="px"
     inkscape:current-layer="layer1"
     inkscape:document-rotation="0"
     showgrid="false"
     showguides="true"
     inkscape:guide-bbox="true"
     units="px"
     inkscape:window-width="1920"
     inkscape:window-height="1017"
     inkscape:window-x="-8"
     inkscape:window-y="-8"
     inkscape:window-maximized="1" />
  <metadata
     id="metadata908">
    <rdf:RDF>
      <cc:Work
         rdf:about="">
        <dc:format>image/svg+xml</dc:format>
        <dc:type
           rdf:resource="http://purl.org/dc/dcmitype/StillImage" />
        <dc:title></dc:title>
      </cc:Work>
    </rdf:RDF>
  </metadata>
  <g
     inkscape:label="Layer 1"
     inkscape:groupmode="layer"
     id="layer1">
    <path
       style="fill:#ffffff;fill-opacity:1;stroke:none;stroke-width:0.24712px;stroke-linecap:butt;stroke-linejoin:miter;stroke-opacity:1"
       d="m 32.446026,114.3 0.655646,-48.832636 c 0,0 -21.012339,-23.30437 -21.452812,-35.239119 C 11.19262,17.866299 22.488766,2.6458338 22.488766,2.6458338 H 112.90771 C 147.78753,29.208047 105.53318,63.164238 105.53318,63.164238 L 105.26469,114.3 Z"
       id="path885"
       sodipodi:nodetypes="ccsccccc" />
    <g
       transform="matrix(0.21329178,0,0,0.21342916,176.67901,27.131786)"
       id="g2956">
      <g
         transform="translate(10.677966,-120.50847)"
         id="text2840"
         style="font-style:normal;font-variant:normal;font-weight:normal;font-stretch:normal;font-size:96.173px;line-height:100%;font-family:'Helvetica CE 55 Roman';-inkscape-font-specification:'Helvetica CE 55 Roman';text-align:center;writing-mode:lr-tb;text-anchor:middle;fill:#000000;fill-opacity:1;stroke:none">
        <path
           id="path2845"
           d="m -817.01131,635.28217 h 15.29118 l 5.38566,-15.29118 h 25.67802 l 5.19196,15.29118 h 15.67565 l -25.67802,-68.66647 h -15.48195 z m 33.56428,-51.74052 h 0.19077 l 8.65522,25.19668 h -17.79177 z" />
        <path
           id="path2847"
           d="m -745.21616,635.28217 h 13.65933 V 612.8737 c -2e-5,-2.17968 0.22402,-4.24736 0.67211,-6.20305 0.44805,-1.95564 1.20136,-3.65449 2.25992,-5.09657 1.05853,-1.44201 2.45312,-2.5798 4.1838,-3.41337 1.73062,-0.83349 3.84624,-1.25025 6.34686,-1.25029 0.8335,4e-5 1.69931,0.048 2.59745,0.14381 0.89806,0.0959 1.66702,0.20744 2.30688,0.33459 v -12.69373 c -0.96075,-0.32084 -1.95472,-0.48129 -2.98192,-0.48134 -1.6671,5e-5 -3.31801,0.25637 -4.95276,0.76896 -1.6348,0.51269 -3.15756,1.23421 -4.56827,2.16454 -1.41077,0.93043 -2.66106,2.05257 -3.75089,3.36641 -1.08987,1.31393 -1.95471,2.74081 -2.59451,4.28065 h -0.19371 v -9.23341 h -12.98429 z" />
        <path
           id="path2849"
           d="m -660.03757,585.5609 h -12.98429 v 6.63596 h -0.19077 c -1.6671,-2.886 -3.73478,-4.93803 -6.20305,-6.15609 -2.46834,-1.21796 -5.33727,-1.82697 -8.60679,-1.82702 -3.46328,5e-5 -6.52543,0.67314 -9.18645,2.01926 -2.66105,1.34622 -4.88917,3.15758 -6.68438,5.43409 -1.79523,2.2766 -3.15754,4.90535 -4.08694,7.88625 -0.92941,2.98098 -1.39412,6.07492 -1.39411,9.28183 -10e-6,3.39872 0.40062,6.62033 1.20187,9.66485 0.80124,3.04455 2.06767,5.70509 3.79931,7.98164 1.73162,2.27656 3.9436,4.07178 6.63596,5.38566 2.69232,1.31389 5.89828,1.97083 9.61788,1.97083 3.01321,0 5.88213,-0.62465 8.60679,-1.87397 2.72459,-1.24932 4.82456,-3.18884 6.29991,-5.81857 h 0.19077 v 6.5391 c 0.0645,3.59044 -0.8008,6.54008 -2.59598,8.84892 -1.79525,2.30884 -4.58396,3.46325 -8.36612,3.46326 -2.43605,-10e-6 -4.58395,-0.49699 -6.44372,-1.49096 -1.85981,-0.99398 -3.10961,-2.77355 -3.74942,-5.3387 h -13.56248 c 0.19371,2.82147 0.97979,5.24184 2.35825,7.2611 1.37845,2.01925 3.1091,3.67017 5.19195,4.95276 2.08284,1.28256 4.3907,2.2286 6.92359,2.83811 2.53285,0.60948 5.0173,0.91422 7.45335,0.91424 3.78412,-2e-5 7.05464,-0.3527 9.81159,-1.05805 2.75687,-0.70539 5.09701,-1.65143 7.02044,-2.83811 1.92333,-1.18672 3.46174,-2.53338 4.61523,-4.03999 1.15339,-1.50662 2.051,-3.07731 2.69283,-4.71208 0.64173,-1.63478 1.07464,-3.26956 1.29873,-4.90433 0.22398,-1.63478 0.336,-3.12525 0.33605,-4.47142 z m -24.6185,37.98727 c -2.11711,10e-6 -3.88102,-0.44855 -5.29174,-1.34568 -1.41076,-0.89711 -2.54855,-2.05104 -3.41337,-3.46179 -0.86485,-1.41073 -1.47386,-2.99756 -1.82701,-4.76052 -0.35319,-1.76291 -0.52978,-3.54248 -0.52976,-5.3387 -2e-5,-1.85879 0.20836,-3.63786 0.62514,-5.33724 0.41675,-1.69931 1.08984,-3.20593 2.01926,-4.51985 0.92939,-1.31385 2.0838,-2.35576 3.46326,-3.12574 1.37941,-0.7699 3.03082,-1.15486 4.95422,-1.15491 2.17967,5e-5 4.02283,0.41681 5.52948,1.2503 1.50658,0.83357 2.70845,1.9557 3.60561,3.36641 0.89708,1.41077 1.53788,3.04604 1.9224,4.90579 0.38444,1.85982 0.57668,3.78271 0.57672,5.76868 -4e-5,1.79622 -0.24022,3.51171 -0.72053,5.14646 -0.4804,1.6348 -1.20142,3.09347 -2.16307,4.37604 -0.96173,1.28259 -2.17974,2.30836 -3.65404,3.07731 -1.47436,0.76897 -3.17322,1.15345 -5.09657,1.15344 z" />
        <path
           id="path2851"
           d="m -601.91643,613.73951 c 0.25627,-3.84673 -0.0646,-7.53354 -0.96267,-11.06042 -0.89815,-3.52681 -2.35682,-6.66869 -4.37603,-9.42564 -2.0193,-2.75687 -4.59962,-4.95271 -7.74097,-6.58753 -3.14143,-1.63473 -6.82823,-2.45212 -11.06042,-2.45217 -3.78222,5e-5 -7.22836,0.67314 -10.33842,2.01926 -3.1101,1.34622 -5.78728,3.18986 -8.03154,5.53094 -2.24428,2.34117 -3.97541,5.11422 -5.19342,8.31917 -1.21801,3.20501 -1.82702,6.66729 -1.82702,10.38684 0,3.84678 0.59335,7.37314 1.78006,10.57909 1.1867,3.20597 2.8699,5.96288 5.04961,8.27073 2.17969,2.30787 4.84023,4.10309 7.98164,5.38566 3.14137,1.28258 6.66773,1.92387 10.57909,1.92388 5.64292,-10e-6 10.45186,-1.31438 14.42682,-3.94313 3.97488,-2.62875 6.92403,-6.89276 8.84746,-12.79205 h -12.02162 c -0.44811,1.53989 -1.66612,2.99906 -3.65404,4.3775 -1.98798,1.37847 -4.36041,2.06769 -7.11729,2.06768 -3.84679,10e-6 -6.79594,-1.0101 -8.84745,-3.03035 -2.05156,-2.02022 -3.17419,-5.21004 -3.36788,-9.56946 z m -35.87409,-8.65521 c 0.0646,-0.96264 0.27343,-2.05298 0.62662,-3.27102 0.35315,-1.21798 0.96216,-2.37191 1.82701,-3.46179 0.86482,-1.08982 2.01875,-2.00357 3.4618,-2.74126 1.443,-0.73762 3.25436,-1.10644 5.43409,-1.10649 3.33409,5e-5 5.81853,0.89766 7.45334,2.69284 1.63474,1.79525 2.77302,4.42449 3.41484,7.88772 z" />
        <path
           id="path2853"
           d="m -593.81886,635.28217 h 13.65933 v -26.0625 c -2e-5,-5.06573 0.83302,-8.70459 2.49913,-10.91661 1.66606,-2.21195 4.35889,-3.31794 8.07849,-3.31798 3.20495,4e-5 5.46487,1.01016 6.77977,3.03035 1.31483,2.02027 1.97226,5.08193 1.9723,9.18498 v 28.08176 h 13.6564 v -30.58235 c -5e-5,-3.07777 -0.27252,-5.88311 -0.81739,-8.41602 -0.54498,-2.53283 -1.49052,-4.68074 -2.83664,-6.44372 -1.34622,-1.76289 -3.18938,-3.14134 -5.52948,-4.13536 -2.34019,-0.99393 -5.33776,-1.49092 -8.99274,-1.49097 -2.88608,5e-5 -5.70756,0.67314 -8.46444,2.01926 -2.75693,1.34622 -5.0012,3.43004 -6.73281,6.25148 h -0.28763 v -6.92359 h -12.98429 z" />
        <path
           id="path2855"
           d="m -519.40279,570.65421 h -13.65639 v 14.90669 h -8.27074 v 9.13655 h 8.27074 v 29.33205 c -10e-6,2.5006 0.41675,4.52035 1.25029,6.05924 0.83352,1.53891 1.97131,2.74126 3.41337,3.60708 1.44203,0.86581 3.1086,1.44302 4.99971,1.73163 1.89108,0.2886 3.89517,0.4329 6.01228,0.4329 1.34615,0 2.7246,-0.0323 4.13537,-0.0969 1.41071,-0.0646 2.69329,-0.19273 3.84774,-0.38448 V 624.7045 c -1.28359,0.25633 -2.69433,0.38449 -4.23222,0.38448 -2.30887,10e-6 -3.84777,-0.38496 -4.61671,-1.15491 -0.76898,-0.76993 -1.15346,-2.30834 -1.15344,-4.61524 V 594.6974 h 10.00237 v -9.13655 h -10.00237 z" />
        <path
           id="path2857"
           d="m -502.51795,635.28217 h 13.6564 V 585.5609 h -13.6564 z m 13.6564,-68.66647 h -13.6564 v 11.25266 h 13.6564 z" />
        <path
           id="path2859"
           d="m -478.11074,635.28217 h 13.65933 v -26.0625 c -2e-5,-5.06573 0.83302,-8.70459 2.49912,-10.91661 1.66606,-2.21195 4.35889,-3.31794 8.0785,-3.31798 3.20495,4e-5 5.46487,1.01016 6.77977,3.03035 1.31483,2.02027 1.97226,5.08193 1.9723,9.18498 v 28.08176 h 13.65639 v -30.58235 c -5e-5,-3.07777 -0.27251,-5.88311 -0.81738,-8.41602 -0.54498,-2.53283 -1.49053,-4.68074 -2.83665,-6.44372 -1.34622,-1.76289 -3.18937,-3.14134 -5.52948,-4.13536 -2.34018,-0.99393 -5.33776,-1.49092 -8.99273,-1.49097 -2.88608,5e-5 -5.70756,0.67314 -8.46445,2.01926 -2.75693,1.34622 -5.0012,3.43004 -6.73281,6.25148 h -0.28762 v -6.92359 h -12.98429 z" />
        <path
           id="path2861"
           d="m -390.03829,616.0464 c -4e-5,0.77093 -0.0803,1.79719 -0.24067,3.07878 -0.16048,1.28161 -0.59338,2.54756 -1.29872,3.79784 -0.7054,1.25031 -1.79525,2.32451 -3.26955,3.2226 -1.47436,0.8981 -3.55868,1.34715 -6.25295,1.34715 -1.08987,0 -2.14744,-0.0964 -3.1727,-0.2891 -1.0253,-0.19272 -1.92291,-0.52926 -2.69283,-1.00963 -0.76996,-0.48034 -1.37896,-1.12163 -1.82701,-1.92387 -0.44809,-0.80221 -0.67213,-1.84412 -0.67211,-3.12574 -2e-5,-1.21701 0.22402,-2.25844 0.67211,-3.12427 0.44805,-0.8658 1.04091,-1.57116 1.77859,-2.11611 0.73763,-0.5449 1.5873,-0.97781 2.54901,-1.29872 0.96167,-0.32087 1.98744,-0.57719 3.07732,-0.76896 1.02525,-0.19369 2.09896,-0.35462 3.22112,-0.4828 1.12211,-0.12814 2.18016,-0.2881 3.17417,-0.47987 0.99394,-0.19173 1.92383,-0.43191 2.78968,-0.72054 0.86578,-0.28858 1.58729,-0.6892 2.16454,-1.20186 z m -17.88862,-15.19432 c 0.2563,-2.69231 1.17006,-4.61569 2.74126,-5.77015 1.57116,-1.15438 3.67064,-1.73159 6.29844,-1.73163 1.21896,4e-5 2.35723,0.0803 3.41483,0.24067 1.05753,0.16049 1.98694,0.48138 2.78822,0.96267 0.80121,0.48137 1.4425,1.15446 1.92387,2.01926 0.4813,0.86487 0.72196,2.03494 0.722,3.51022 -4e-5,1.41077 -0.44909,2.48448 -1.34715,3.22112 -0.89813,0.73671 -2.10049,1.29778 -3.60707,1.6832 -1.50665,0.38549 -3.22165,0.6741 -5.145,0.86582 -1.9234,0.19178 -3.94315,0.4481 -6.05924,0.76896 -2.11612,0.32092 -4.18381,0.75383 -6.20305,1.29872 -2.01927,0.54496 -3.83014,1.36234 -5.43262,2.45217 -1.6025,1.08987 -2.88459,2.54855 -3.84627,4.37603 -0.9617,1.82753 -1.44254,4.15202 -1.44254,6.97348 0,2.56322 0.43242,4.77471 1.29726,6.63449 0.86483,1.8598 2.0667,3.3987 3.6056,4.6167 1.53889,1.21802 3.33411,2.13177 5.38567,2.74126 2.05152,0.6095 4.26399,0.91424 6.63742,0.91425 3.07778,-10e-6 6.09101,-0.4652 9.0397,-1.39558 2.94863,-0.93038 5.51281,-2.51673 7.69254,-4.75905 0.0645,0.83354 0.17704,1.65092 0.33752,2.45217 0.16041,0.80124 0.36879,1.58635 0.62515,2.35531 h 13.85011 c -0.64183,-1.02528 -1.09088,-2.56369 -1.34715,-4.61524 -0.25637,-2.05153 -0.38453,-4.19944 -0.38448,-6.44372 v -25.87172 c -5e-5,-2.94863 -0.67314,-5.35285 -2.01926,-7.21268 -1.34622,-1.85975 -3.07736,-3.30228 -5.19342,-4.32761 -2.11615,-1.02523 -4.45679,-1.71446 -7.02191,-2.06769 -2.56519,-0.35312 -5.09806,-0.52971 -7.59863,-0.52976 -2.81954,5e-5 -5.57596,0.27252 -8.26926,0.81739 -2.69334,0.54498 -5.12985,1.45873 -7.30954,2.74126 -2.17971,1.28263 -3.97493,2.98197 -5.38566,5.09804 -1.41075,2.11615 -2.21199,4.77669 -2.40374,7.98164 z" />
        <path
           id="path2863"
           d="m -336.03197,597.48567 h 10.29 V 566.6157 h -10.29 z" />
        <path
           id="path2865"
           d="m -267.90846,567.95991 h -45.97038 v 12.69666 h 31.9295 c -6.41195,7.75814 -11.58923,16.30133 -15.53184,25.6296 -3.94266,9.32832 -6.29943,18.99364 -7.07034,28.996 h 14.61907 c 0.0645,-4.48854 0.57767,-9.32927 1.53939,-14.52222 0.96166,-5.19291 2.3724,-10.32225 4.23222,-15.38803 1.85976,-5.06571 4.15196,-9.84236 6.87663,-14.32997 2.72458,-4.48751 5.84983,-8.27019 9.37575,-11.34804 z" />
        <path
           id="path2868"
           d="m -249.09243,614.89296 c -1e-5,-3.46128 1.15392,-6.10569 3.4618,-7.93322 2.30784,-1.82747 5.12883,-2.74123 8.46297,-2.74126 1.60246,3e-5 3.09294,0.25635 4.47142,0.76896 1.37843,0.51267 2.59692,1.24984 3.6555,2.2115 1.05851,0.96172 1.89204,2.1 2.50059,3.41483 0.60848,1.31489 0.91274,2.77357 0.91278,4.37604 -4e-5,1.66708 -0.28864,3.20598 -0.86582,4.6167 -0.57724,1.41076 -1.39463,2.61311 -2.45216,3.60707 -1.0576,0.99399 -2.29175,1.76344 -3.70246,2.30836 -1.41077,0.54493 -2.91739,0.81739 -4.51985,0.81738 -1.66708,10e-6 -3.22164,-0.27245 -4.66366,-0.81738 -1.44207,-0.54492 -2.69236,-1.31437 -3.75089,-2.30836 -1.05856,-0.99396 -1.90823,-2.19631 -2.54902,-3.60707 -0.64081,-1.41072 -0.96121,-2.98191 -0.9612,-4.71355 z m -10.86818,-29.91025 c 0,3.33417 0.83353,6.25153 2.50059,8.75207 1.66706,2.50063 4.13536,4.19998 7.40492,5.09804 v 0.19077 c -3.97395,0.96271 -7.08305,2.88658 -9.32732,5.77161 -2.24427,2.8851 -3.36641,6.47603 -3.3664,10.7728 -10e-6,3.65307 0.72102,6.79397 2.16307,9.42271 1.44204,2.62876 3.36542,4.80894 5.77014,6.54057 2.4047,1.73163 5.12982,3.01421 8.17535,3.84774 3.04549,0.83353 6.20303,1.25029 9.4726,1.2503 3.14234,-10e-6 6.22014,-0.43291 9.2334,-1.29873 3.0132,-0.86581 5.70603,-2.18019 8.0785,-3.94312 2.37238,-1.76294 4.27962,-3.97492 5.72172,-6.63596 1.44199,-2.66103 2.16301,-5.75448 2.16307,-9.28037 -6e-5,-4.23219 -1.08991,-7.80698 -3.26956,-10.72436 -2.17974,-2.91733 -5.28885,-4.82505 -9.32732,-5.72319 v -0.19077 c 3.20494,-1.08981 5.64096,-2.88503 7.30807,-5.38566 1.66701,-2.50055 2.50054,-5.4179 2.50059,-8.75207 -5e-5,-1.60244 -0.38453,-3.46174 -1.15344,-5.57791 -0.76901,-2.11605 -2.03545,-4.08785 -3.79932,-5.91542 -1.76395,-1.82744 -4.08845,-3.38199 -6.97348,-4.66366 -2.8851,-1.28154 -6.41146,-1.92234 -10.57908,-1.9224 -2.75694,6e-5 -5.48156,0.38454 -8.17388,1.15344 -2.69236,0.76903 -5.11273,1.92295 -7.26111,3.46179 -2.1484,1.53896 -3.89569,3.46234 -5.24185,5.77014 -1.34618,2.30792 -2.01926,4.96847 -2.01926,7.98164 z m 12.40611,1.2503 c -2e-5,-3.01318 1.02575,-5.32104 3.07731,-6.92359 2.05152,-1.60243 4.45574,-2.40367 7.21268,-2.40373 2.11706,6e-5 3.83254,0.32046 5.14646,0.9612 1.31385,0.64086 2.33962,1.4421 3.07731,2.40374 0.73762,0.96174 1.23461,1.98751 1.49097,3.07731 0.25628,1.0899 0.38444,2.05159 0.38448,2.88507 -4e-5,2.8861 -0.97787,5.08243 -2.9335,6.589 -1.9557,1.50666 -4.34427,2.25996 -7.16572,2.25992 -1.3462,4e-5 -2.64443,-0.1922 -3.8947,-0.57672 -1.25032,-0.38444 -2.35631,-0.9455 -3.31798,-1.6832 -0.96171,-0.73761 -1.71502,-1.65136 -2.25993,-2.74126 -0.54494,-1.0898 -0.8174,-2.37238 -0.81738,-3.84774 z" />
      </g>
      <g
         transform="matrix(1.0119803,0,0,1.0119803,880.42133,11.353647)"
         id="g2943">
        <path
           id="path18"
           style="fill:#231f20;fill-opacity:1;fill-rule:evenodd;stroke:none"
           d="m -1370.1057,-45.953334 46.5246,33.745265 -17.7588,54.625985 h -57.322 l -17.7555,-54.625985 46.3117,-33.745265" />
        <path
           id="path20"
           style="fill:#231f20;fill-opacity:1;fill-rule:evenodd;stroke:none"
           d="m -1328.9831,112.5128 c 21.0805,-7.8917 39.2554,-21.702976 52.7554,-39.668128 l -6.2308,-23.779912 c -14.1225,5.709931 -28.9755,10.175011 -44.238,13.08403 -7.6853,13.500071 -16.5107,26.377717 -26.4793,38.21362 l 24.1927,12.15039" />
        <path
           id="path22"
           style="fill:#231f20;fill-opacity:1;fill-rule:evenodd;stroke:none"
           d="m -1253.175,-2.3409945 c -0.9336,-22.2205745 -8.3077,-43.9268285 -21.2869,-62.2031925 l -24.612,-1.556063 c 0.416,5.811485 0.5176,11.423138 0.5176,17.031515 0,9.762245 -0.5176,19.416385 -1.7625,29.077076 10.6959,11.8359043 20.2485,24.0911255 28.3498,37.279984 l 18.794,-19.6293195" />
        <path
           id="path24"
           style="fill:#231f20;fill-opacity:1;fill-rule:evenodd;stroke:none"
           d="m -1338.9517,-109.8207 c -9.9687,-2.80091 -20.5597,-4.25542 -31.154,-4.25542 -11.6296,0 -23.2591,1.76572 -34.4758,5.29717 l -9.1366,22.947827 c 15.161,3.737826 29.8043,8.930161 43.7172,15.577005 14.2273,-6.856503 28.8674,-12.045562 43.9268,-15.681834 l -12.8776,-23.884748" />
        <path
           id="path26"
           style="fill:#231f20;fill-opacity:1;fill-rule:evenodd;stroke:none"
           d="m -1440.9246,-66.10025 -26.6889,4.569911 c -12.2553,18.5843 -19.0037,40.395384 -19.3149,62.825617 l 19.0036,15.888217 c 8.203,-13.395241 17.7555,-25.7552917 28.4514,-36.968771 -2.1785,-15.265792 -2.4897,-31.049181 -1.4512,-46.626186 v 0.311212" />
        <path
           id="path28"
           style="fill:#231f20;fill-opacity:1;fill-rule:evenodd;stroke:none"
           d="m -1457.5434,49.06476 c 14.5419,5.81476 29.3883,10.279841 44.6541,13.188859 7.479,13.706454 16.3043,26.584101 26.2729,38.423281 l -20.8709,13.08403 c -21.1854,-7.26927 -39.9826,-20.356576 -53.8954,-37.800857 l 3.8393,-26.895313" />
        <path
           sodipodi:nodetypes="cccccccccccccccccccccccccccccccccccc"
           d="m -1441.7567,115.93623 c 10.175,10.4927 11.1119,31.06191 10.5943,43.73376 l 0.1016,232.69328 h -39.0457 l -0.1048,-228.64301 c 0.1048,-8.41185 -0.2064,-29.08266 -6.7484,-36.04283 -120.875,-128.9107113 -84.011,-159.295385 0.2063,-252.26485 h 51.4025 c -97.095,87.152935 -100.9377,154.098191 -16.4058,240.52365 z m 143.9309,0 c -10.1783,10.4927 -11.1152,31.06191 -10.5943,43.73376 l -0.1049,232.69328 h 39.0457 l 0.1049,-228.64301 c -0.1049,-8.41185 0.2063,-29.08266 6.7516,-36.04283 120.875,-128.9107113 83.9062,-159.295385 -0.2096,-252.26485 h -51.4025 c 97.095,87.152935 100.9377,154.098191 16.4091,240.52365 z m -222.1271,22.75165 c 5.0908,5.81653 6.1259,13.71062 6.542,20.98211 v 232.69328 h -39.0457 V 163.72026 c 0,-5.40037 -3.5282,-14.02194 -7.6853,-17.86576 -148.7039,-136.4935029 -151.1969,-151.9190422 -26.9969,-270.44192 h 49.6368 c -133.5462,133.2755662 -89.7242,141.013454 17.5491,263.2753 z m 300.32,0 c -5.0875,5.81653 -6.1259,13.71062 -6.542,20.98211 v 232.69328 h 38.9409 l 0.1048,-228.64301 c 0,-5.40037 3.5315,-14.02194 7.6821,-17.86576 148.6056,-136.4935029 151.0986,-151.9190422 27.0034,-270.44192 h -49.64 c 133.5462,133.2755662 89.7242,141.013454 -17.5492,263.2753 z"
           style="fill:#82b0e2;fill-opacity:1;fill-rule:evenodd;stroke:none;stroke-width:1.00015"
           id="path36" />
      </g>
      <g
         transform="rotate(-90,55.03727,811.70013)"
         id="g3699">
        <g
           style="font-style:normal;font-variant:normal;font-weight:normal;font-stretch:normal;font-size:53.5839px;line-height:100%;font-family:'Helvetica Neue';-inkscape-font-specification:'Helvetica Neue';text-align:center;writing-mode:lr-tb;text-anchor:middle;fill:#000000;fill-opacity:1;stroke:none"
           id="text2827"
           transform="translate(4.8538686,-1.6179562)" />
        <g
           id="g2889"
           transform="matrix(1.0808794,0,0,1.0808794,-18.965647,-148.67288)">
          <g
             id="text2831"
             style="font-style:normal;font-variant:normal;font-weight:normal;font-stretch:normal;font-size:50.4624px;line-height:100%;font-family:Ligurino;-inkscape-font-specification:Ligurino;text-align:center;writing-mode:lr-tb;text-anchor:middle;fill:#000000;fill-opacity:1;stroke:none" />
        </g>
        <g
           transform="translate(85.066514,-1.6449362)"
           id="g2896"
           style="font-style:normal;font-variant:normal;font-weight:normal;font-stretch:normal;font-size:53.5839px;line-height:100%;font-family:'Helvetica Neue';-inkscape-font-specification:'Helvetica Neue';text-align:center;writing-mode:lr-tb;text-anchor:middle;fill:#000000;fill-opacity:1;stroke:none" />
        <g
           style="font-style:normal;font-variant:normal;font-weight:normal;font-stretch:normal;font-size:53.5839px;line-height:100%;font-family:'Helvetica Neue';-inkscape-font-specification:'Helvetica Neue';text-align:center;writing-mode:lr-tb;text-anchor:middle;fill:#000000;fill-opacity:1;stroke:none"
           id="g2914"
           transform="translate(131.06651,-1.6449362)" />
        <g
           transform="matrix(0.83407737,0,0,0.83407737,160.92035,213.13291)"
           style="font-style:normal;font-variant:normal;font-weight:normal;font-stretch:normal;font-size:40px;line-height:100%;font-family:'Helvetica Neue';-inkscape-font-specification:'Helvetica Neue';text-align:center;writing-mode:lr-tb;text-anchor:middle;fill:#000000;fill-opacity:1;stroke:#000000;stroke-opacity:1"
           id="text2918" />
      </g>
    </g>
  </g>
</svg>
